# xmcd
#
# Track frame offsets:
#	150
#	13395
#	39313
#	56922
#	76886
#	93645
#	129071
#	150844
#	164870
#	181857
#
# Disc length: 2465 seconds
#
# Revision: 1
# Processed by: cddbd v1.4PL0 Copyright (c) Steve Scherf et al.
# Submitted via: EasyCDDAExtractor 5.0.7
#
DISCID=76099f0a
DTITLE=OBOROH - Zalmy
DYEAR=1999
DGENRE=Blues
TTITLE0=Zanevrels na nas Boze
TTITLE1=Rekl jsem si
TTITLE2=Bloud si v srdci rika
TTITLE3=Kdyz Hospodin udel
TTITLE4=Hospodine pomoz
TTITLE5=Chvalu vzdejme Hospodinu
TTITLE6=Reky meni v poust
TTITLE7=Nemam , Hospodine, domyslive srdce
TTITLE8=Hospodine , pane nas
TTITLE9=Jake dobro, jake blaho
EXTD=
EXTT0=
EXTT1=
EXTT2=
EXTT3=
EXTT4=
EXTT5=
EXTT6=
EXTT7=
EXTT8=
EXTT9=
PLAYORDER=
